<svg xmlns="http://www.w3.org/2000/svg" width="755" height="656" viewBox="0 0 755 656">
    <defs>
        <filter id="a" width="108.3%" height="108.3%" x="-4.1%" y="-3.9%" filterUnits="objectBoundingBox">
            <feOffset dy="2" in="SourceAlpha" result="shadowOffsetOuter1"/>
            <feGaussianBlur in="shadowOffsetOuter1" result="shadowBlurOuter1" stdDeviation="9.5"/>
            <feComposite in="shadowBlurOuter1" in2="SourceAlpha" operator="out" result="shadowBlurOuter1"/>
            <feColorMatrix in="shadowBlurOuter1" result="shadowMatrixOuter1" values="0 0 0 0 0 0 0 0 0 0 0 0 0 0 0 0 0 0 0.140766531 0"/>
            <feMerge>
                <feMergeNode in="shadowMatrixOuter1"/>
                <feMergeNode in="SourceGraphic"/>
            </feMerge>
        </filter>
        <filter id="b" width="102.5%" height="102.5%" x="-1.2%" y="-1.2%" filterUnits="objectBoundingBox">
            <feGaussianBlur in="SourceGraphic" stdDeviation="2"/>
        </filter>
    </defs>
    <g fill="none" fill-rule="evenodd">
        <text fill="#004262" font-family="NothingYouCouldDo, Nothing You Could Do" font-size="75" font-style="condensed" letter-spacing="-.544" transform="translate(-75.266 209.371)">
            <tspan x="147.268" y="51.816">Trello</tspan> <tspan x="350.452" y="65.055" font-size="20"> </tspan> <tspan x="358.552" y="65.055" font-size="55">+</tspan> <tspan x="388.364" y="65.055" font-size="20"> </tspan> <tspan x="389.707" y="51.816">WBS</tspan>
        </text>
        <text fill="#004262" font-family="NothingYouCouldDo, Nothing You Could Do" font-size="119" font-style="condensed" letter-spacing="-1.322" opacity=".3" transform="translate(-75.266 209.371)">
            <tspan x="321.233" y="109.801">=</tspan>
        </text>
        <path fill="#002336" d="M147.404 364.583c-.014-.733-.587-1.321-1.265-1.307l-4.593.127-4.015.106-3.118.083c-.674.02-1.081.622-1.203 1.37l-.135.627c-.277 1.288.562 1.647 1.241 1.628l4.175-.117 4.025-.112 3.71-.102c.674-.019 1.222-.636 1.202-1.38l-.024-.923zM156.534 348.611l-.024-.082-.087-.33-1.372-10.413s-3.497.51-9.447.52c-2.211.004-14.271-.239-18.16-.54-.257-.02-.51-.039-.762-.063-.34-.024-.669-.053-1.003-.078-5.97-.486-11.648-1.059-11.648-1.059l4.17 15.5s1.979.35 5.29.753c1.164.146 2.493.292 3.967.428 5.17.5 12.056.913 19.49.675.935-.029 1.871-.068 2.817-.121.364-.02.66-.034.994-.054 5.266-.316 6.988-.622 6.988-.622l-1.213-4.514z"/>
        <path fill="#004063" d="M139.008 369.02l-.02-.083-.086-.335-.408-1.506-.965-3.586-1.47-5.481s-1.866.598-7.123.67l.985 3.62c.3 1.123.29 2.585-1.12 2.4l-.69-.092c-.804-.043-1.585-.583-1.89-1.705l-1.164-4.305a233.135 233.135 0 0 1-6.857-.442c-.257-.02-.51-.044-.766-.063-.34-.025-.67-.054-1.004-.083a654.756 654.756 0 0 1-11.643-1.054l4.165 15.495s17.206 1.535 23.291 1.74c6.086.199 7.978-.676 7.978-.676l-1.213-4.514z"/>
        <path fill="#007BB9" d="M164.897 357.636s-2.027.676-7.977.695a99.564 99.564 0 0 1-4.956-.136l1.116 4.125c.305 1.118.296 2.585-1.116 2.4l-.688-.096c-.81-.04-1.586-.583-1.886-1.701l-1.344-4.946c-4.33-.277-8.132-.613-8.132-.613l4.195 15.49s10.925.778 17.01.968c6.092.19 7.973-.695 7.973-.695l-4.195-15.49z"/>
        <g fill="#004063">
            <path d="M186.128 379.43v-5.49l4.854-.938v-32.778l-4.854-.948v-5.514h18.878v5.514l-4.884.948v32.18h12.866l.44-5.743h6.979v12.77zM246.663 375.132c-1.091 1.588-2.43 2.813-4.025 3.673-1.596.855-3.414 1.288-5.46 1.288-3.57 0-6.372-1.147-8.394-3.44-2.023-2.29-3.031-5.85-3.031-10.68V351.95l-3.73-.938v-5.525h12.866v20.549c0 2.468.412 4.241 1.236 5.32.825 1.074 2.052 1.613 3.68 1.613 1.441 0 2.687-.233 3.74-.71a6.498 6.498 0 0 0 2.584-2.02v-18.29l-4.01-.937v-5.525h13.151v27.516l4.103.938v5.49h-12.119l-.591-4.3zM288.066 362.742c0-3.197-.529-5.792-1.596-7.779-1.066-1.987-2.696-2.979-4.883-2.979-1.377 0-2.55.282-3.525.846-.97.564-1.736 1.37-2.299 2.415v14.873a5.61 5.61 0 0 0 2.299 2.191c.974.5 2.167.754 3.588.754 2.211 0 3.836-.87 4.869-2.605 1.033-1.734 1.547-4.086 1.547-7.055v-.66zm-26.298-11.73v-5.524h13.273l.436 3.955c1.004-1.462 2.202-2.594 3.603-3.391 1.402-.792 3.026-1.19 4.883-1.19 4.2 0 7.449 1.642 9.767 4.926 2.318 3.285 3.477 7.6 3.477 12.954v.661c0 5.02-1.16 9.052-3.477 12.108-2.318 3.052-5.553 4.578-9.704 4.578-1.77 0-3.346-.33-4.728-.987-1.377-.66-2.555-1.627-3.535-2.9v9.815l4.413.942v5.52h-17.937v-5.52l4.412-.942V351.95l-4.883-.937zM314.415 373.314c1.377 0 2.628-.301 3.753-.894 1.13-.597 2.003-1.346 2.628-2.245v-5.174h-4.665c-1.94 0-3.409.456-4.413 1.365-.998.909-1.498 2.002-1.498 3.275 0 1.151.369 2.05 1.11 2.701.742.652 1.77.972 3.085.972zm7.919 6.118a16.342 16.342 0 0 1-.66-1.745 14.56 14.56 0 0 1-.436-1.802c-1.082 1.253-2.406 2.269-3.957 3.041-1.557.773-3.337 1.167-5.344 1.167-3.312 0-5.95-.91-7.905-2.717-1.949-1.807-2.924-4.27-2.924-7.39 0-3.178 1.276-5.632 3.822-7.366 2.54-1.74 6.28-2.605 11.201-2.605h4.665v-3.328c0-1.628-.465-2.896-1.406-3.795-.94-.899-2.328-1.346-4.16-1.346-1.048 0-1.974.122-2.789.36-.815.243-1.47.53-1.969.86l-.601 3.644h-6.881l.024-7.531c1.673-1.132 3.589-2.08 5.746-2.853 2.163-.772 4.515-1.16 7.061-1.16 4.195 0 7.599 1.024 10.222 3.085 2.619 2.06 3.928 4.995 3.928 8.804v14.018c0 .525.005 1.016.015 1.472.014.462.048.904.111 1.322l2.789.374v5.49h-10.552zM409.497 339.278l-3.754.476-9.242 39.678h-8.482l-8.355-30.145h-.19l-8.36 30.145h-8.48l-9.302-39.678-3.724-.476v-5.52h16.779v5.52l-4.161.719 5.227 25.038.185.03 8.549-31.307h6.73l8.608 31.306.19-.029 5.193-25.038-4.16-.72v-5.519h16.749zM425.664 359.23v13.173h8.418c2.424 0 4.272-.525 5.543-1.584 1.275-1.054 1.91-2.619 1.91-4.689 0-2.235-.543-3.95-1.624-5.13-1.087-1.181-2.803-1.77-5.136-1.77h-9.111zm0-6.34h6.57c2.444 0 4.326-.496 5.64-1.502 1.314-1 1.974-2.468 1.974-4.392 0-2.109-.665-3.669-1.989-4.67-1.328-1.01-3.302-1.51-5.935-1.51h-6.26v12.074zm6.26-19.13c5.363 0 9.548 1.045 12.555 3.134 3.006 2.094 4.51 5.223 4.51 9.383 0 2.113-.563 3.994-1.678 5.66-1.116 1.662-2.74 2.916-4.87 3.751 2.736.584 4.787 1.837 6.155 3.761 1.367 1.924 2.046 4.15 2.046 6.681 0 4.369-1.44 7.682-4.316 9.927-2.88 2.25-6.963 3.372-12.244 3.372h-22.413v-5.49l4.854-.938v-32.779l-4.854-.942v-5.52h20.254zM488.174 348.346h-6.857l-1.188-6.273c-.795-.506-1.96-.943-3.477-1.317-1.523-.379-3.142-.569-4.854-.569-2.507 0-4.437.53-5.805 1.584-1.367 1.06-2.05 2.425-2.05 4.097 0 1.55.712 2.818 2.142 3.809 1.431.996 3.9 2.046 7.405 3.153 5.029 1.405 8.845 3.256 11.44 5.55 2.599 2.302 3.899 5.325 3.899 9.071 0 3.907-1.547 6.992-4.632 9.251-3.089 2.26-7.162 3.387-12.21 3.387-3.613 0-6.871-.573-9.78-1.725-2.915-1.151-5.34-2.74-7.28-4.771v-9.534h7.075l.97 6.492c.917.758 2.163 1.38 3.739 1.87 1.576.491 3.336.734 5.276.734 2.507 0 4.408-.51 5.712-1.535 1.305-1.025 1.955-2.395 1.955-4.11 0-1.755-.621-3.169-1.862-4.233-1.237-1.064-3.42-2.075-6.523-3.012-5.411-1.57-9.495-3.43-12.278-5.583-2.774-2.158-4.16-5.102-4.16-8.848 0-3.698 1.566-6.725 4.698-9.082 3.128-2.352 7.066-3.557 11.799-3.62 3.506 0 6.701.535 9.582 1.599 2.88 1.069 5.3 2.488 7.264 4.266v9.349z"/>
        </g>
        <g fill="#FFF" fill-opacity=".7" transform="translate(78.344 78.71)">
            <circle cx="223.931" cy="223.931" r="223.931"/>
        </g>
        <g fill="#004262" filter="url(#a)" transform="rotate(-13 365.901 207.683)">
            <path d="M680.91 680.538c-18.355 18.357-52.238 14.376-75.519-8.897l-19.133-19.133c21.708-6.247 55.975-22.964 66.913-66.326l18.843 18.843c11.453 11.463 18.58 25.849 20.05 40.534 1.414 13.963-2.556 26.382-11.154 34.98zm-119.544-52.914c21.699-6.228 55.994-22.936 66.97-66.289l8.784 8.794c-6.48 53.468-52.107 64.687-66.389 66.86l-9.365-9.365zm-15.518-15.528l-11.977-11.978c21.67-6.191 56.021-22.852 67.034-66.205l11.388 11.38c-6.518 53.485-52.238 64.658-66.445 66.803zm-59.636-59.236l66.623-66.626 32.037 31.646c-6.583 53.514-52.453 64.602-66.529 66.71l-32.13-31.73zm-20.275-7.034c-.712.712-1.17 1.574-1.61 2.426l-2.998 2.997c-2.725 2.744-7.576 2.725-10.301 0l-10.63-10.62c-2.79-2.791-2.79-7.521 0-10.312l89.895-89.899a7.25 7.25 0 0 1 5.16-2.116c1.958 0 3.784.749 5.151 2.116l10.62 10.63a7.23 7.23 0 0 1 2.126 5.151c0 1.957-.75 3.793-2.126 5.151v.01l-2.978 2.987c-.871.43-1.723.9-2.444 1.61l-79.865 79.87zm-182.13 3.063c-146.16 0-265.077-118.904-265.077-265.07S137.647 18.731 283.806 18.731c146.16 0 265.058 118.922 265.058 265.088 0 146.166-118.898 265.07-265.058 265.07zm401.449 42.884l-119.329-118.94c3.915-4.665 6.153-10.443 6.153-16.634 0-6.958-2.707-13.495-7.614-18.394l-10.61-10.63c-5.582-5.572-13.552-7.866-21.194-7.098 22.252-40.468 34.932-86.902 34.932-136.258C567.594 127.323 440.286 0 283.806 0 127.317 0 0 127.323 0 283.82c0 156.486 127.317 283.8 283.806 283.8 49.242 0 95.589-12.625 135.999-34.784-.768 7.511 1.61 15.294 7.351 21.035l10.63 10.62c4.898 4.908 11.434 7.615 18.402 7.615 6.18 0 11.959-2.239 16.623-6.153l62.755 62.354c.243.244.45.488.702.694l23.928 23.938c.346.393.693.768 1.105 1.095l30.839 30.85c17.044 17.036 38.79 25.82 59.158 25.82 16.174 0 31.485-5.553 42.855-16.923 12.652-12.643 18.533-30.437 16.557-50.105-1.901-18.955-10.938-37.387-25.454-51.903z"/>
            <path d="M282.137 511.372c-124.03 0-224.938-100.913-224.938-224.948 0-124.036 100.908-224.949 224.938-224.949 124.03 0 224.938 100.913 224.938 224.949 0 124.035-100.908 224.948-224.938 224.948m0-468.627c-134.36 0-243.668 109.313-243.668 243.679 0 134.365 109.309 243.678 243.668 243.678 134.36 0 243.668-109.313 243.668-243.678 0-134.366-109.308-243.68-243.668-243.68" filter="url(#b)"/>
        </g>
    </g>
</svg>
