<svg xmlns="http://www.w3.org/2000/svg" width="725" height="569" viewBox="0 0 725 569">
    <defs>
        <filter id="a" width="108.9%" height="108.9%" x="-4.4%" y="-4.1%" filterUnits="objectBoundingBox">
            <feOffset dy="2" in="SourceAlpha" result="shadowOffsetOuter1"/>
            <feGaussianBlur in="shadowOffsetOuter1" result="shadowBlurOuter1" stdDeviation="9.5"/>
            <feComposite in="shadowBlurOuter1" in2="SourceAlpha" operator="out" result="shadowBlurOuter1"/>
            <feColorMatrix in="shadowBlurOuter1" result="shadowMatrixOuter1" values="0 0 0 0 0 0 0 0 0 0 0 0 0 0 0 0 0 0 0.140766531 0"/>
            <feMerge>
                <feMergeNode in="shadowMatrixOuter1"/>
                <feMergeNode in="SourceGraphic"/>
            </feMerge>
        </filter>
        <filter id="b" width="102.6%" height="102.6%" x="-1.3%" y="-1.3%" filterUnits="objectBoundingBox">
            <feGaussianBlur in="SourceGraphic" stdDeviation="2"/>
        </filter>
    </defs>
    <g fill="#004262" fill-rule="evenodd" filter="url(#a)" transform="rotate(-68 287.47 260.247)">
        <path d="M637.218 636.87c-17.178 17.178-48.886 13.453-70.674-8.327l-17.905-17.906c20.315-5.845 52.383-21.49 62.62-62.07l17.633 17.635c10.718 10.727 17.388 24.19 18.764 37.932 1.323 13.068-2.393 24.69-10.438 32.735zm-111.874-49.52c20.307-5.828 52.4-21.464 62.672-62.035l8.22 8.23c-6.064 50.037-48.762 60.536-62.128 62.57l-8.764-8.765zm-14.522-14.531l-11.209-11.21c20.28-5.793 52.427-21.385 62.733-61.956l10.657 10.649c-6.1 50.054-48.886 60.51-62.18 62.517zm-55.81-55.435l62.348-62.35 29.982 29.614c-6.161 50.08-49.087 60.458-62.26 62.43l-30.07-29.694zm-18.974-6.583c-.666.667-1.095 1.473-1.507 2.27l-2.804 2.805c-2.55 2.568-7.09 2.55-9.64 0l-9.948-9.939c-2.612-2.612-2.612-7.038 0-9.65l84.126-84.13a6.785 6.785 0 0 1 4.83-1.98c1.83 0 3.54.7 4.82 1.98l9.938 9.948a6.767 6.767 0 0 1 1.99 4.82c0 1.832-.702 3.55-1.99 4.821v.009l-2.787 2.796c-.815.403-1.613.841-2.288 1.507l-74.74 74.743zm-170.443 2.866c-136.78 0-248.067-111.273-248.067-248.06S128.814 17.529 265.595 17.529c136.78 0 248.05 111.291 248.05 248.078s-111.27 248.06-248.05 248.06zm375.69 40.133L529.611 442.49c3.664-4.364 5.758-9.772 5.758-15.565 0-6.512-2.532-12.63-7.125-17.214l-9.93-9.947c-5.223-5.215-12.681-7.363-19.833-6.644 20.824-37.871 32.69-81.325 32.69-127.514C531.172 119.153 412.034 0 265.595 0 119.147 0 0 119.153 0 265.607c0 146.445 119.147 265.59 265.595 265.59 46.081 0 89.455-11.815 127.272-32.552-.719 7.03 1.507 14.313 6.88 19.685l9.947 9.939c4.583 4.593 10.7 7.126 17.221 7.126 5.784 0 11.192-2.095 15.556-5.759L501.2 587.99c.228.228.421.456.658.649l22.392 22.402c.324.368.648.718 1.034 1.025l28.86 28.87c15.95 15.943 36.3 24.164 55.363 24.164 15.135 0 29.464-5.198 40.104-15.838 11.84-11.832 17.344-28.484 15.495-46.89-1.78-17.739-10.237-34.987-23.82-48.572z"/>
        <path d="M264.033 478.558c-116.071 0-210.504-94.437-210.504-210.514 0-116.076 94.433-210.513 210.504-210.513 116.071 0 210.504 94.437 210.504 210.513 0 116.077-94.433 210.514-210.504 210.514m0-438.556C138.295 40.002 36 142.3 36 268.044c0 125.744 102.294 228.043 228.032 228.043 125.738 0 228.032-102.3 228.032-228.043 0-125.743-102.294-228.042-228.032-228.042" filter="url(#b)"/>
    </g>
</svg>
